Coordinates
version=1
nRows=5
nColumns=107
inDegrees=yes

Units are S.I. units (second, meters, Newtons, ...)
If the header above contains a line with 'inDegrees', this indicates whether rotational values are in degrees (yes) or radians (no).

endheader
time	sternoclavicular_r2	sternoclavicular_r3	unrotscap_r3	unrotscap_r2	acromioclavicular_r2	acromioclavicular_r3	acromioclavicular_r1	unrothum_r1	unrothum_r3	unrothum_r2	elv_angle	shoulder_elv	shoulder1_r2	shoulder_rot	elbow_flexion	pro_sup	deviation	flexion	proximal_distal_r1	proximal_distal_r3	cmc_flexion	cmc_abduction	mp_flexion	ip_flexion	mcp2_flexion	mcp2_abduction	pm2_flexion	md2_flexion	mcp3_flexion	mcp3_abduction	pm3_flexion	md3_flexion	mcp4_flexion	mcp4_abduction	pm4_flexion	md4_flexion	mcp5_flexion	mcp5_abduction	pm5_flexion	md5_flexion	bicpt_tx	bicpt_ty	bicpt_tz	bicpt2_tx	bicpt2_ty	bicpt2_tz	ptpt_tx	ptpt_ty	ptpt_tz	FCUpt_tx	FCUpt_ty	FCUpt_tz	EDCpt_tx	EDCpt_ty	EDCpt_tz	APLpt_tx	APLpt_ty	APLpt_tz	FPLpt_tx	FPLpt_ty	FPLpt_tz	FPLpt2_tx	FPLpt2_ty	FPLpt2_tz	PEC1pt2_tx	PEC1pt2_ty	PEC1pt2_tz	PEC1pt3_tx	PEC1pt3_ty	PEC1pt3_tz	PEC2pt2_tx	PEC2pt2_ty	PEC2pt2_tz	PEC2pt3_tx	PEC2pt3_ty	PEC2pt3_tz	PEC3pt2_tx	PEC3pt2_ty	PEC3pt2_tz	PEC3pt3_tx	PEC3pt3_ty	PEC3pt3_tz	DELT2pt2a_tx	DELT2pt2a_ty	DELT2pt2a_tz	DELT2pt2_tx	DELT2pt2_ty	DELT2pt2_tz	LAT1pt2_tx	LAT1pt2_ty	LAT1pt2_tz	LAT1pt3_tx	LAT1pt3_ty	LAT1pt3_tz	LAT2pt2_tx	LAT2pt2_ty	LAT2pt2_tz	LAT2pt3_tx	LAT2pt3_ty	LAT2pt3_tz	LAT3pt2_tx	LAT3pt2_ty	LAT3pt2_tz	LAT3pt3_tx	LAT3pt3_ty	LAT3pt3_tz
      0.00000000	     -0.32214682	      0.13644619	     -0.13644619	      0.32214682	     -0.06522818	      0.52715119	      0.23695083	     -0.23695083	     -0.52715119	      0.06522818	     98.42497792	     76.27112373	     -1.71783993	    -22.11278605	     29.22659263	     17.46727763	     -0.02309974	     -0.95726735	     -0.03178557	     -0.47863368	     -5.91278078	     -8.12188138	    -38.29516465	    -55.89692137	     29.80882550	     13.76187751	      9.38308178	    -21.12024836	     45.06056976	      7.12577477	     86.10710028	     75.33372312	     36.28396875	     -5.86553135	     99.87874145	     52.90076226	     18.17955750	    -13.51529313	     -7.39170156	      5.02922898	      0.00086672	     -0.03094981	     -0.00483957	      0.01595154	     -0.01813955	     -0.00951949	      0.00625937	     -0.06573455	     -0.00145708	      0.00559002	     -0.18389171	     -0.00003528	     -0.00209607	      0.00054199	      0.00017060	      0.00021201	      0.00008480	      0.00042402	      0.00027138	      0.00081413	      0.00045795	     -0.00048779	      0.00016724	      0.00020069	      0.00250000	      0.00877119	      0.00610170	     -0.00817797	      0.01974576	     -0.01872881	      0.00250000	      0.00877119	      0.00610170	      0.00055085	      0.01830509	     -0.00961864	      0.00395188	      0.00487755	      0.01597727	      0.00000000	      0.00777997	      0.00000000	     -0.00716102	     -0.03309322	     -0.00641494	      0.01496568	     -0.00049769	     -0.00406621	     -0.00088983	      0.01491525	     -0.00610170	      0.00245763	      0.02152542	     -0.01779661	     -0.00597458	      0.01292373	     -0.00546610	     -0.01245763	      0.02728814	     -0.03055085	     -0.02338983	      0.01444915	     -0.00733051	     -0.01550847	      0.03152542	     -0.03817797
      0.03333333	     -0.32207612	      0.13641624	     -0.13641624	      0.32207612	     -0.06521386	      0.52703550	      0.23689883	     -0.23689883	     -0.52703550	      0.06521386	     98.43385471	     76.25438496	     -1.71799486	    -22.10386746	     29.23090210	     17.47093338	     -0.02312211	     -0.95725177	     -0.03181755	     -0.47862588	     -5.91505705	     -8.12278047	    -38.29543910	    -55.89673147	     29.81081483	     13.76137043	      9.38345356	    -21.11991784	     45.06437826	      7.12525929	     86.10696787	     75.33315331	     36.28751757	     -5.86456322	     99.87912418	     52.90044766	     18.17931914	    -13.51495875	     -7.39187010	      5.02918602	      0.00086687	     -0.03095031	     -0.00483965	      0.01595173	     -0.01814072	     -0.00951922	      0.00625910	     -0.06573472	     -0.00145738	      0.00559037	     -0.18389166	     -0.00003537	     -0.00209651	      0.00054211	      0.00017061	      0.00021202	      0.00008481	      0.00042404	      0.00027138	      0.00081415	      0.00045796	     -0.00048816	      0.00016731	      0.00020078	      0.00249945	      0.00876926	      0.00610036	     -0.00817617	      0.01974143	     -0.01872470	      0.00249945	      0.00876926	      0.00610036	      0.00055073	      0.01830107	     -0.00961653	      0.00395125	      0.00487648	      0.01597572	      0.00000000	      0.00777653	      0.00000000	     -0.00715945	     -0.03308596	     -0.00641209	      0.01496070	     -0.00049742	     -0.00406292	     -0.00088964	      0.01491198	     -0.00610036	      0.00245709	      0.02152070	     -0.01779270	     -0.00597327	      0.01292089	     -0.00546490	     -0.01245489	      0.02728215	     -0.03054414	     -0.02338470	      0.01444598	     -0.00732890	     -0.01550507	      0.03151851	     -0.03816959
      0.06666667	     -0.32973022	      0.13965816	     -0.13965816	      0.32973022	     -0.06676366	      0.53956043	      0.24252870	     -0.24252870	     -0.53956043	      0.06676366	     96.98652785	     78.06656024	     -1.69273424	    -13.77650488	     28.97012955	     10.11070970	     -0.00135118	     -0.99077553	     -0.00183522	     -0.49538777	     -6.61330235	     -8.80292930	    -37.94885623	    -54.87045384	     29.55711291	     13.72213989	      9.71166595	    -20.82466788	     46.55425776	      6.71840751	     85.85292540	     71.98996061	     38.17559473	     -5.21493751	    100.38723479	     48.22341828	     19.36246634	    -13.53061128	     -8.76676460	      5.05368899	      0.00085824	     -0.03092042	     -0.00483483	      0.01549669	     -0.01806988	     -0.01003448	      0.00680293	     -0.06538307	     -0.00086447	      0.00490888	     -0.18399000	      0.00016214	     -0.00121328	      0.00030224	      0.00011891	      0.00019163	      0.00007665	      0.00038326	      0.00024529	      0.00073586	      0.00041392	     -0.00059805	      0.00018963	      0.00022756	      0.00255885	      0.00897766	      0.00624533	     -0.00837048	      0.02021058	     -0.01916969	      0.00255885	      0.00897766	      0.00624533	      0.00056381	      0.01873599	     -0.00984507	      0.00401919	      0.00499236	      0.01613915	      0.00000000	      0.00815333	      0.00000000	     -0.00732959	     -0.03387224	     -0.00672481	      0.00992596	     -0.00024894	     -0.00145827	     -0.00091078	      0.01526636	     -0.00624533	      0.00251548	      0.02203214	     -0.01821555	     -0.00611522	      0.01322796	     -0.00559477	     -0.01275088	      0.02793050	     -0.03127002	     -0.02394043	      0.01478929	     -0.00750307	     -0.01587355	      0.03226754	     -0.03907668
      0.10000000	     -0.32241106	      0.13655811	     -0.13655811	      0.32241106	     -0.06528168	      0.52758359	      0.23714519	     -0.23714519	     -0.52758359	      0.06528168	     98.44349030	     76.33368506	     -1.71816303	    -21.95751837	     29.18871305	     18.06294653	     -0.01679611	     -0.95045311	     -0.02302546	     -0.47522655	     -7.08002386	     -8.56893491	    -37.86895899	    -54.43794526	     30.28921462	     13.69998942	      9.89897985	    -21.89682864	     47.49824940	      6.29271192	     85.68909780	     70.83643659	     38.71343702	     -5.16815410	    100.44969208	     46.82066380	     19.24198896	    -13.53330736	     -8.39854237	      5.03376425	      0.00086547	     -0.03094547	     -0.00483887	      0.01598296	     -0.01812926	     -0.00947448	      0.00621535	     -0.06576301	     -0.00150507	      0.00564591	     -0.18388308	     -0.00004949	     -0.00216755	      0.00056213	      0.00017350	      0.00021593	      0.00008637	      0.00043185	      0.00027639	      0.00082916	      0.00046640	     -0.00067908	      0.00020485	      0.00024582	      0.00250205	      0.00877838	      0.00610670	     -0.00818467	      0.01976196	     -0.01874418	      0.00250205	      0.00877838	      0.00610670	      0.00055130	      0.01832010	     -0.00962653	      0.00395425	      0.00488155	      0.01598304	      0.00000000	      0.00779283	      0.00000000	     -0.00716689	     -0.03312037	     -0.00642562	      0.01488026	     -0.00049281	     -0.00400749	     -0.00089056	      0.01492749	     -0.00610670	      0.00245964	      0.02154308	     -0.01781121	     -0.00597948	      0.01293433	     -0.00547059	     -0.01246785	      0.02731052	     -0.03057591	     -0.02340902	      0.01446100	     -0.00733652	     -0.01552120	      0.03155128	     -0.03820928
      0.13333333	     -0.32269868	      0.13667993	     -0.13667993	      0.32269868	     -0.06533992	      0.52805424	      0.23735675	     -0.23735675	     -0.52805424	      0.06533992	     98.22436152	     76.40178193	     -1.71433851	    -21.63471432	     29.51924377	     18.39556462	     -0.00697791	     -0.91216584	     -0.00950917	     -0.45608292	     -7.57306054	     -8.99448931	    -37.29031813	    -54.04342682	     29.13169177	     13.65599031	     10.69044055	    -22.67319310	     46.83895622	      6.48903772	     85.94217868	     70.91586100	     38.51393426	     -4.94435159	     99.94734790	     46.53381611	     19.03661818	    -13.45284974	     -8.82229159	      5.03498554	      0.00087640	     -0.03098336	     -0.00484497	      0.01600014	     -0.01821905	     -0.00944912	      0.00619078	     -0.06577890	     -0.00153186	      0.00567716	     -0.18387822	     -0.00005730	     -0.00220746	      0.00057343	      0.00017503	      0.00023660	      0.00009464	      0.00047320	      0.00030285	      0.00090854	      0.00051105	     -0.00077147	      0.00022119	      0.00026542	      0.00250428	      0.00878621	      0.00611215	     -0.00819198	      0.01977959	     -0.01876090	      0.00250428	      0.00878621	      0.00611215	      0.00055179	      0.01833644	     -0.00963512	      0.00395682	      0.00488590	      0.01598932	      0.00000000	      0.00780682	      0.00000000	     -0.00717328	     -0.03314991	     -0.00643724	      0.01470221	     -0.00048265	     -0.00388592	     -0.00089135	      0.01494081	     -0.00611215	      0.00246184	      0.02156230	     -0.01782710	     -0.00598481	      0.01294587	     -0.00547547	     -0.01247897	      0.02733488	     -0.03060318	     -0.02342990	      0.01447391	     -0.00734307	     -0.01553504	      0.03157943	     -0.03824337
